<svg width="92" height="45" viewBox="0 0 92 45" fill="none" xmlns="http://www.w3.org/2000/svg">
<g clip-path="url(#clip0_39_1527)">
<path opacity="0.5" d="M0.528995 10.7736C0.519208 10.7729 0.509542 10.7723 0.5 10.7716V0.5H80V10.7699C79.9905 10.7706 79.9808 10.7712 79.971 10.7719C79.6435 10.7948 79.1789 10.8403 78.6227 10.931C77.5125 11.112 76.0245 11.475 74.5303 12.2059C73.0344 12.9376 71.5216 14.0436 70.3837 15.7134C69.2433 17.3869 68.5 19.5968 68.5 22.4992C68.5 25.4015 69.2433 27.6114 70.3837 29.2849C71.5216 30.9547 73.0344 32.0607 74.5303 32.7924C76.0245 33.5233 77.5125 33.8863 78.6227 34.0673C79.1789 34.158 79.6435 34.2035 79.971 34.2264C79.9808 34.2271 79.9905 34.2277 80 34.2284V44.5H0.5V34.2284C0.509519 34.2278 0.51916 34.2271 0.528922 34.2265C0.856382 34.2036 1.321 34.1582 1.87727 34.0675C2.98739 33.8867 4.47541 33.524 5.96965 32.7933C7.4656 32.0618 8.97837 30.956 10.1163 29.2863C11.2567 27.613 12 25.4032 12 22.5008C12 19.5985 11.2567 17.3886 10.1163 15.7151C8.9784 14.0453 7.46564 12.9393 5.9697 12.2076C4.47547 11.4767 2.98746 11.1137 1.87734 10.9327C1.32107 10.842 0.856454 10.7965 0.528995 10.7736Z" fill="#58566A" fill-opacity="0.4" stroke="#282739"/>
<path opacity="0.5" d="M12 0.5H91.5V10.7716C91.4905 10.7723 91.4808 10.7729 91.471 10.7736C91.1435 10.7965 90.6789 10.842 90.1227 10.9327C89.0125 11.1137 87.5245 11.4767 86.0303 12.2076C84.5344 12.9393 83.0216 14.0453 81.8837 15.7151C80.7433 17.3886 80 19.5985 80 22.5008C80 25.4032 80.7433 27.6131 81.8837 29.2866C83.0216 30.9564 84.5344 32.0624 86.0303 32.7941C87.5245 33.525 89.0125 33.888 90.1227 34.069C90.6789 34.1597 91.1435 34.2052 91.471 34.2281C91.4808 34.2288 91.4905 34.2294 91.5 34.2301V44.5017H12V34.2301C12.0095 34.2294 12.0192 34.2288 12.029 34.2281C12.3565 34.2052 12.8211 34.1597 13.3773 34.069C14.4875 33.888 15.9755 33.525 17.4697 32.7941C18.9656 32.0624 20.4784 30.9564 21.6163 29.2866C22.7567 27.6131 23.5 25.4032 23.5 22.5008C23.5 19.5985 22.7567 17.3886 21.6163 15.7151C20.4784 14.0453 18.9656 12.9393 17.4697 12.2076C15.9755 11.4767 14.4875 11.1137 13.3773 10.9327C12.8211 10.842 12.3565 10.7965 12.029 10.7736C12.0192 10.7729 12.0095 10.7723 12 10.7716V0.5Z" fill="#58566A" fill-opacity="0.4" stroke="#282739"/>
<path opacity="0.5" d="M46.5 0.5H80V10.7716C79.9905 10.7723 79.9808 10.7729 79.971 10.7736C79.6435 10.7965 79.1789 10.842 78.6227 10.9327C77.5125 11.1137 76.0245 11.4767 74.5303 12.2076C73.0344 12.9393 71.5216 14.0453 70.3837 15.7151C69.2433 17.3886 68.5 19.5985 68.5 22.5008V44.5017H58V22.5008C58 19.5985 57.2567 17.3886 56.1163 15.7151C54.9784 14.0453 53.4656 12.9393 51.9697 12.2076C50.4755 11.4767 48.9875 11.1137 47.8773 10.9327C47.3211 10.842 46.8565 10.7965 46.529 10.7736C46.5192 10.7729 46.5095 10.7723 46.5 10.7716V0.5Z" fill="#58566A" fill-opacity="0.5" stroke="#282739"/>
<path opacity="0.5" d="M34.9699 0.5H45.5016V10.7698C45.4915 10.7705 45.4812 10.7712 45.4708 10.7719C45.1422 10.7948 44.6758 10.8403 44.1174 10.931C43.0031 11.1119 41.5095 11.4748 40.0097 12.2055C38.5081 12.9371 36.9895 14.0429 35.847 15.7127C34.702 17.3862 33.9556 19.5964 33.9556 22.4992C33.9556 25.402 34.702 27.6121 35.847 29.2856C36.9895 30.9554 38.5081 32.0612 40.0097 32.7928C41.5095 33.5235 43.0031 33.8864 44.1174 34.0673C44.6758 34.158 45.1422 34.2035 45.4708 34.2264C45.4812 34.2271 45.4915 34.2278 45.5016 34.2285V44.5H34.8806C34.8588 44.3794 34.8314 44.2363 34.7976 44.074C34.6881 43.5479 34.5114 42.8174 34.242 41.9961C33.707 40.3649 32.7899 38.3246 31.2627 36.8358C29.7364 35.348 27.6471 34.4576 25.9777 33.9392C25.1369 33.6781 24.3892 33.5072 23.8508 33.4015C23.5814 33.3486 23.3637 33.3118 23.2124 33.2882C23.1367 33.2763 23.0775 33.2678 23.0367 33.2621L22.9893 33.2557L22.9764 33.254L22.9727 33.2536L22.9715 33.2534L22.9711 33.2534C22.9709 33.2533 22.9708 33.2533 22.9096 33.7496L22.9708 33.2533L22.4096 33.1842V33.7496V44.5H11.8636V0.5H22.4114V11.2487V11.7362L22.8987 11.7486L22.9114 11.2487C22.8987 11.7486 22.8988 11.7486 22.899 11.7486L22.8994 11.7486L22.9007 11.7486L22.9047 11.7487L22.9185 11.749L22.9686 11.7496C23.0118 11.7499 23.0742 11.75 23.1539 11.7491C23.3134 11.7472 23.5423 11.7413 23.8252 11.7251C24.3904 11.6929 25.1747 11.6197 26.0527 11.4554C27.7928 11.1298 29.9751 10.4331 31.521 8.91709L31.5211 8.91699C33.0583 7.4086 33.9247 5.16166 34.4092 3.34976C34.654 2.43478 34.8063 1.6112 34.8976 1.01602C34.9281 0.817185 34.9518 0.643495 34.9699 0.5Z" fill="#58566A" fill-opacity="0.75" stroke="#282739"/>
<line x1="46" y1="4.37114e-08" x2="46" y2="45" stroke="#F3D2D2" stroke-width="2" stroke-dasharray="2 2"/>
</g>
<defs>
<clipPath id="clip0_39_1527">
<rect width="92" height="45" fill="white"/>
</clipPath>
</defs>
</svg>
